# xmcd
#
# Track frame offsets:
# 150
# 30955
# 52098
# 72743
# 96273
# 113613
# 141712
# 165919
# 194284
# 225748
# 248692
# 273408
# 294305
# 315434
#
# Disc length: 4532 seconds
#
#
# Revision: 0
# Processed by: cddbd v1.5.2PL0 Copyright (c) Steve Scherf et al.
# Submitted via: FreeRIP 2.96 
#
DISCID=c511b20e
DTITLE=Jane Austen - Gefühl und Verstand CD5v10
DYEAR=2007
DGENRE=Speech
TTITLE0=060 Gefühl und Verstand
TTITLE1=061 Gefühl und Verstand
TTITLE2=062 Gefühl und Verstand
TTITLE3=063 Gefühl und Verstand
TTITLE4=064 Gefühl und Verstand
TTITLE5=065 Gefühl und Verstand
TTITLE6=066 Gefühl und Verstand
TTITLE7=067 Gefühl und Verstand
TTITLE8=068 Gefühl und Verstand
TTITLE9=069 Gefühl und Verstand
TTITLE10=070 Gefühl und Verstand
TTITLE11=071 Gefühl und Verstand
TTITLE12=072 Gefühl und Verstand
TTITLE13=073 Gefühl und Verstand
EXTD=gelesen von Uta Kroemer
EXTT0=
EXTT1=
EXTT2=
EXTT3=
EXTT4=
EXTT5=
EXTT6=
EXTT7=
EXTT8=
EXTT9=
EXTT10=
EXTT11=
EXTT12=
EXTT13=
PLAYORDER=
